<mxfile host="app.diagrams.net" modified="2023-11-20T12:07:37.781Z" agent="Mozilla/5.0 (Windows NT 10.0; Win64; x64) AppleWebKit/537.36 (KHTML, like Gecko) Chrome/119.0.0.0 Safari/537.36" etag="dUHmkYguFXNgTyJCIH0H" version="22.1.3" type="device">
  <diagram name="Page-1" id="Tl-RUBRihT8ZmPgngLrp">
    <mxGraphModel dx="2268" dy="310" grid="1" gridSize="10" guides="1" tooltips="1" connect="1" arrows="1" fold="1" page="1" pageScale="1" pageWidth="850" pageHeight="1100" math="0" shadow="0">
      <root>
        <mxCell id="0" />
        <mxCell id="1" parent="0" />
        <mxCell id="YjlcLBbJkgOvv29dIScK-1" value="&#xa;CTID" style="swimlane;startSize=0;" parent="1" vertex="1">
          <mxGeometry x="-1259" y="550" width="1320" height="1460" as="geometry">
            <mxRectangle x="150" width="70" height="40" as="alternateBounds" />
          </mxGeometry>
        </mxCell>
        <mxCell id="YjlcLBbJkgOvv29dIScK-4" value="&lt;font style=&quot;font-size: 7px;&quot;&gt;Choose number of samples&lt;/font&gt;" style="ellipse;whiteSpace=wrap;html=1;" parent="YjlcLBbJkgOvv29dIScK-1" vertex="1">
          <mxGeometry x="20" y="50" width="70" height="50" as="geometry" />
        </mxCell>
        <mxCell id="YjlcLBbJkgOvv29dIScK-5" value="&lt;p style=&quot;line-height: 80%; font-size: 7px;&quot;&gt;&lt;font style=&quot;font-size: 7px;&quot;&gt;Display report of of the number of &lt;/font&gt;&lt;span style=&quot;background-color: initial;&quot;&gt;incidents per category&lt;/span&gt;&lt;/p&gt;" style="ellipse;whiteSpace=wrap;html=1;" parent="YjlcLBbJkgOvv29dIScK-1" vertex="1">
          <mxGeometry x="20" y="160" width="78" height="50" as="geometry" />
        </mxCell>
        <mxCell id="YjlcLBbJkgOvv29dIScK-6" value="&lt;p style=&quot;line-height: 80%;&quot;&gt;&lt;font style=&quot;font-size: 7px;&quot;&gt;Display table of the top 15 incidents in each category&lt;/font&gt;&lt;/p&gt;" style="ellipse;whiteSpace=wrap;html=1;" parent="YjlcLBbJkgOvv29dIScK-1" vertex="1">
          <mxGeometry x="31.5" y="290" width="70" height="40" as="geometry" />
        </mxCell>
        <mxCell id="YjlcLBbJkgOvv29dIScK-11" value="&lt;font style=&quot;font-size: 10px;&quot;&gt;Verify input&lt;/font&gt;" style="ellipse;whiteSpace=wrap;html=1;" parent="YjlcLBbJkgOvv29dIScK-1" vertex="1">
          <mxGeometry x="157.5" y="20" width="60" height="40" as="geometry" />
        </mxCell>
        <mxCell id="YjlcLBbJkgOvv29dIScK-12" value="&lt;font style=&quot;font-size: 10px;&quot;&gt;Display&lt;br&gt;&amp;nbsp;input error&lt;/font&gt;" style="ellipse;whiteSpace=wrap;html=1;" parent="YjlcLBbJkgOvv29dIScK-1" vertex="1">
          <mxGeometry x="157.5" y="80" width="60" height="40" as="geometry" />
        </mxCell>
        <mxCell id="YjlcLBbJkgOvv29dIScK-13" value="&lt;font style=&quot;font-size: 8px;&quot;&gt;&amp;lt;&amp;lt;include&amp;gt;&amp;gt;&lt;/font&gt;" style="html=1;verticalAlign=bottom;labelBackgroundColor=none;endArrow=open;endFill=0;dashed=1;rounded=0;entryX=0;entryY=0.5;entryDx=0;entryDy=0;exitX=1;exitY=0;exitDx=0;exitDy=0;" parent="YjlcLBbJkgOvv29dIScK-1" source="YjlcLBbJkgOvv29dIScK-4" target="YjlcLBbJkgOvv29dIScK-11" edge="1">
          <mxGeometry x="0.0052" width="160" relative="1" as="geometry">
            <mxPoint x="433" y="20" as="sourcePoint" />
            <mxPoint x="538" y="160" as="targetPoint" />
            <mxPoint as="offset" />
          </mxGeometry>
        </mxCell>
        <mxCell id="YjlcLBbJkgOvv29dIScK-14" value="&lt;font style=&quot;font-size: 8px;&quot;&gt;&amp;lt;&amp;lt;extend&amp;gt;&amp;gt;&lt;/font&gt;" style="html=1;verticalAlign=bottom;labelBackgroundColor=none;endArrow=open;endFill=0;dashed=1;rounded=0;entryX=1;entryY=0.5;entryDx=0;entryDy=0;exitX=0;exitY=0.5;exitDx=0;exitDy=0;" parent="YjlcLBbJkgOvv29dIScK-1" source="YjlcLBbJkgOvv29dIScK-12" target="YjlcLBbJkgOvv29dIScK-4" edge="1">
          <mxGeometry width="160" relative="1" as="geometry">
            <mxPoint x="259" y="240" as="sourcePoint" />
            <mxPoint x="339" y="340" as="targetPoint" />
          </mxGeometry>
        </mxCell>
        <mxCell id="DLUMgZfNCb0zFbr6v7K_-3" value="&lt;p style=&quot;line-height: 80%;&quot;&gt;&lt;font style=&quot;font-size: 7px;&quot;&gt;Display incidents based on selected filters on a table&lt;/font&gt;&lt;/p&gt;" style="ellipse;whiteSpace=wrap;html=1;" parent="YjlcLBbJkgOvv29dIScK-1" vertex="1">
          <mxGeometry x="572.5" y="869" width="70" height="40" as="geometry" />
        </mxCell>
        <mxCell id="ekGB9nlK1m-V3cDS4Xhz-47" style="edgeStyle=orthogonalEdgeStyle;rounded=0;orthogonalLoop=1;jettySize=auto;html=1;exitX=0.5;exitY=0;exitDx=0;exitDy=0;entryX=0.5;entryY=1;entryDx=0;entryDy=0;" parent="YjlcLBbJkgOvv29dIScK-1" source="DLUMgZfNCb0zFbr6v7K_-7" target="DLUMgZfNCb0zFbr6v7K_-3" edge="1">
          <mxGeometry relative="1" as="geometry" />
        </mxCell>
        <mxCell id="DLUMgZfNCb0zFbr6v7K_-7" value="&lt;p style=&quot;line-height: 80%;&quot;&gt;&lt;font style=&quot;font-size: 7px;&quot;&gt;&amp;nbsp;Search by Protocol identifier&lt;/font&gt;&lt;/p&gt;" style="ellipse;whiteSpace=wrap;html=1;" parent="YjlcLBbJkgOvv29dIScK-1" vertex="1">
          <mxGeometry x="296" y="950" width="70" height="40" as="geometry" />
        </mxCell>
        <mxCell id="ekGB9nlK1m-V3cDS4Xhz-48" style="edgeStyle=orthogonalEdgeStyle;rounded=0;orthogonalLoop=1;jettySize=auto;html=1;exitX=0.5;exitY=0;exitDx=0;exitDy=0;entryX=0.5;entryY=1;entryDx=0;entryDy=0;" parent="YjlcLBbJkgOvv29dIScK-1" source="DLUMgZfNCb0zFbr6v7K_-8" target="DLUMgZfNCb0zFbr6v7K_-3" edge="1">
          <mxGeometry relative="1" as="geometry" />
        </mxCell>
        <mxCell id="DLUMgZfNCb0zFbr6v7K_-8" value="&lt;p style=&quot;line-height: 80%;&quot;&gt;&lt;font style=&quot;font-size: 7px;&quot;&gt;Search by Label&lt;/font&gt;&lt;/p&gt;" style="ellipse;whiteSpace=wrap;html=1;" parent="YjlcLBbJkgOvv29dIScK-1" vertex="1">
          <mxGeometry x="572" y="950" width="70" height="40" as="geometry" />
        </mxCell>
        <mxCell id="ekGB9nlK1m-V3cDS4Xhz-49" style="edgeStyle=orthogonalEdgeStyle;rounded=0;orthogonalLoop=1;jettySize=auto;html=1;exitX=0.5;exitY=0;exitDx=0;exitDy=0;entryX=0.5;entryY=1;entryDx=0;entryDy=0;" parent="YjlcLBbJkgOvv29dIScK-1" source="DLUMgZfNCb0zFbr6v7K_-9" target="DLUMgZfNCb0zFbr6v7K_-3" edge="1">
          <mxGeometry relative="1" as="geometry" />
        </mxCell>
        <mxCell id="DLUMgZfNCb0zFbr6v7K_-9" value="&lt;p style=&quot;line-height: 80%;&quot;&gt;&lt;font style=&quot;font-size: 7px;&quot;&gt;Search by Destination Port&lt;/font&gt;&lt;/p&gt;" style="ellipse;whiteSpace=wrap;html=1;" parent="YjlcLBbJkgOvv29dIScK-1" vertex="1">
          <mxGeometry x="920.5" y="950" width="70" height="40" as="geometry" />
        </mxCell>
        <mxCell id="DLUMgZfNCb0zFbr6v7K_-10" value="&lt;p style=&quot;line-height: 80%;&quot;&gt;&lt;font style=&quot;font-size: 7px;&quot;&gt;Include new Incident entries&lt;/font&gt;&lt;/p&gt;" style="ellipse;whiteSpace=wrap;html=1;" parent="YjlcLBbJkgOvv29dIScK-1" vertex="1">
          <mxGeometry x="38" y="670" width="70" height="40" as="geometry" />
        </mxCell>
        <mxCell id="DLUMgZfNCb0zFbr6v7K_-21" value="&lt;font style=&quot;font-size: 9px;&quot;&gt;&amp;lt;&amp;lt;include&amp;gt;&amp;gt;&lt;/font&gt;" style="html=1;verticalAlign=bottom;labelBackgroundColor=none;endArrow=open;endFill=0;dashed=1;rounded=0;exitX=1;exitY=0.5;exitDx=0;exitDy=0;entryX=0;entryY=0.5;entryDx=0;entryDy=0;" parent="YjlcLBbJkgOvv29dIScK-1" source="DLUMgZfNCb0zFbr6v7K_-10" target="Cg1j_zctwQn2LOcNu0u8-18" edge="1">
          <mxGeometry width="160" relative="1" as="geometry">
            <mxPoint x="258" y="610" as="sourcePoint" />
            <mxPoint x="189" y="690" as="targetPoint" />
          </mxGeometry>
        </mxCell>
        <mxCell id="Cg1j_zctwQn2LOcNu0u8-3" value="&lt;font style=&quot;font-size: 8px;&quot;&gt;Import random samples from the database&lt;/font&gt;" style="ellipse;whiteSpace=wrap;html=1;" parent="YjlcLBbJkgOvv29dIScK-1" vertex="1">
          <mxGeometry x="280" y="20" width="79" height="40" as="geometry" />
        </mxCell>
        <mxCell id="Cg1j_zctwQn2LOcNu0u8-4" value="&lt;font style=&quot;font-size: 8px;&quot;&gt;&amp;lt;&amp;lt;include&amp;gt;&amp;gt;&lt;/font&gt;" style="html=1;verticalAlign=bottom;labelBackgroundColor=none;endArrow=open;endFill=0;dashed=1;rounded=0;entryX=0;entryY=0.5;entryDx=0;entryDy=0;exitX=1;exitY=0.5;exitDx=0;exitDy=0;" parent="YjlcLBbJkgOvv29dIScK-1" source="YjlcLBbJkgOvv29dIScK-11" target="Cg1j_zctwQn2LOcNu0u8-3" edge="1">
          <mxGeometry x="0.0052" width="160" relative="1" as="geometry">
            <mxPoint x="109" y="90" as="sourcePoint" />
            <mxPoint x="210" y="70" as="targetPoint" />
            <mxPoint as="offset" />
          </mxGeometry>
        </mxCell>
        <mxCell id="Cg1j_zctwQn2LOcNu0u8-9" style="edgeStyle=orthogonalEdgeStyle;rounded=0;orthogonalLoop=1;jettySize=auto;html=1;exitX=0;exitY=0.5;exitDx=0;exitDy=0;entryX=1;entryY=0.5;entryDx=0;entryDy=0;" parent="YjlcLBbJkgOvv29dIScK-1" source="Cg1j_zctwQn2LOcNu0u8-5" target="YjlcLBbJkgOvv29dIScK-6" edge="1">
          <mxGeometry relative="1" as="geometry">
            <Array as="points">
              <mxPoint x="132.5" y="270" />
              <mxPoint x="132.5" y="310" />
            </Array>
          </mxGeometry>
        </mxCell>
        <mxCell id="Cg1j_zctwQn2LOcNu0u8-5" value="&lt;font style=&quot;font-size: 8px;&quot;&gt;Display Top 15 Android Adware&lt;/font&gt;" style="ellipse;whiteSpace=wrap;html=1;" parent="YjlcLBbJkgOvv29dIScK-1" vertex="1">
          <mxGeometry x="252.5" y="250" width="71" height="40" as="geometry" />
        </mxCell>
        <mxCell id="Cg1j_zctwQn2LOcNu0u8-8" style="edgeStyle=orthogonalEdgeStyle;rounded=0;orthogonalLoop=1;jettySize=auto;html=1;exitX=0;exitY=0.5;exitDx=0;exitDy=0;entryX=1;entryY=0.5;entryDx=0;entryDy=0;" parent="YjlcLBbJkgOvv29dIScK-1" source="Cg1j_zctwQn2LOcNu0u8-7" target="YjlcLBbJkgOvv29dIScK-6" edge="1">
          <mxGeometry relative="1" as="geometry">
            <Array as="points">
              <mxPoint x="132.5" y="340" />
              <mxPoint x="132.5" y="310" />
            </Array>
          </mxGeometry>
        </mxCell>
        <mxCell id="Cg1j_zctwQn2LOcNu0u8-7" value="&lt;font style=&quot;font-size: 7px;&quot;&gt;Display Top 15 Android SMS Malware&lt;/font&gt;" style="ellipse;whiteSpace=wrap;html=1;" parent="YjlcLBbJkgOvv29dIScK-1" vertex="1">
          <mxGeometry x="263.5" y="320" width="71" height="40" as="geometry" />
        </mxCell>
        <mxCell id="Cg1j_zctwQn2LOcNu0u8-11" style="edgeStyle=orthogonalEdgeStyle;rounded=0;orthogonalLoop=1;jettySize=auto;html=1;exitX=0;exitY=0.5;exitDx=0;exitDy=0;" parent="YjlcLBbJkgOvv29dIScK-1" source="Cg1j_zctwQn2LOcNu0u8-6" edge="1">
          <mxGeometry relative="1" as="geometry">
            <mxPoint x="102.50000000000011" y="309.9731543624161" as="targetPoint" />
          </mxGeometry>
        </mxCell>
        <mxCell id="Cg1j_zctwQn2LOcNu0u8-6" value="&lt;font style=&quot;font-size: 8px;&quot;&gt;Display Top 15 Android Scareware&lt;/font&gt;" style="ellipse;whiteSpace=wrap;html=1;" parent="YjlcLBbJkgOvv29dIScK-1" vertex="1">
          <mxGeometry x="191.5" y="290" width="71" height="40" as="geometry" />
        </mxCell>
        <mxCell id="Cg1j_zctwQn2LOcNu0u8-12" value="&lt;font style=&quot;font-size: 10px;&quot;&gt;Input IncidentId&lt;/font&gt;" style="ellipse;whiteSpace=wrap;html=1;" parent="YjlcLBbJkgOvv29dIScK-1" vertex="1">
          <mxGeometry x="175" y="470" width="81" height="40" as="geometry" />
        </mxCell>
        <mxCell id="Cg1j_zctwQn2LOcNu0u8-13" value="&lt;font style=&quot;font-size: 10px;&quot;&gt;Display detailed view of incidents&lt;/font&gt;" style="ellipse;whiteSpace=wrap;html=1;" parent="YjlcLBbJkgOvv29dIScK-1" vertex="1">
          <mxGeometry x="45.5" y="470" width="81" height="40" as="geometry" />
        </mxCell>
        <mxCell id="Cg1j_zctwQn2LOcNu0u8-14" value="&lt;font style=&quot;font-size: 9px;&quot;&gt;&amp;lt;&amp;lt;include&amp;gt;&amp;gt;&lt;/font&gt;" style="html=1;verticalAlign=bottom;labelBackgroundColor=none;endArrow=open;endFill=0;dashed=1;rounded=0;exitX=1;exitY=0.5;exitDx=0;exitDy=0;entryX=0;entryY=0.5;entryDx=0;entryDy=0;" parent="YjlcLBbJkgOvv29dIScK-1" source="Cg1j_zctwQn2LOcNu0u8-13" target="Cg1j_zctwQn2LOcNu0u8-12" edge="1">
          <mxGeometry width="160" relative="1" as="geometry">
            <mxPoint x="125.5" y="430" as="sourcePoint" />
            <mxPoint x="206.5" y="430" as="targetPoint" />
          </mxGeometry>
        </mxCell>
        <mxCell id="Cg1j_zctwQn2LOcNu0u8-15" value="&lt;font style=&quot;font-size: 10px;&quot;&gt;Import from the database&lt;/font&gt;" style="ellipse;whiteSpace=wrap;html=1;" parent="YjlcLBbJkgOvv29dIScK-1" vertex="1">
          <mxGeometry x="435" y="450" width="89" height="40" as="geometry" />
        </mxCell>
        <mxCell id="Cg1j_zctwQn2LOcNu0u8-16" value="&lt;font style=&quot;font-size: 9px;&quot;&gt;&amp;lt;&amp;lt;include&amp;gt;&amp;gt;&lt;/font&gt;" style="html=1;verticalAlign=bottom;labelBackgroundColor=none;endArrow=open;endFill=0;dashed=1;rounded=0;entryX=0;entryY=0.5;entryDx=0;entryDy=0;exitX=1;exitY=0;exitDx=0;exitDy=0;" parent="YjlcLBbJkgOvv29dIScK-1" source="ekGB9nlK1m-V3cDS4Xhz-1" target="Cg1j_zctwQn2LOcNu0u8-15" edge="1">
          <mxGeometry width="160" relative="1" as="geometry">
            <mxPoint x="369" y="460" as="sourcePoint" />
            <mxPoint x="569" y="410" as="targetPoint" />
          </mxGeometry>
        </mxCell>
        <mxCell id="Cg1j_zctwQn2LOcNu0u8-18" value="&lt;font style=&quot;font-size: 9px;&quot;&gt;Input value fields of the new Incident&lt;/font&gt;" style="ellipse;whiteSpace=wrap;html=1;" parent="YjlcLBbJkgOvv29dIScK-1" vertex="1">
          <mxGeometry x="142" y="670" width="89" height="40" as="geometry" />
        </mxCell>
        <mxCell id="ekGB9nlK1m-V3cDS4Xhz-64" style="edgeStyle=orthogonalEdgeStyle;rounded=0;orthogonalLoop=1;jettySize=auto;html=1;exitX=0.5;exitY=0;exitDx=0;exitDy=0;entryX=0.5;entryY=1;entryDx=0;entryDy=0;" parent="YjlcLBbJkgOvv29dIScK-1" source="Cg1j_zctwQn2LOcNu0u8-22" target="DLUMgZfNCb0zFbr6v7K_-9" edge="1">
          <mxGeometry relative="1" as="geometry" />
        </mxCell>
        <mxCell id="Cg1j_zctwQn2LOcNu0u8-22" value="&lt;p style=&quot;line-height: 80%;&quot;&gt;&lt;font style=&quot;font-size: 7px;&quot;&gt;Range&lt;/font&gt;&lt;/p&gt;" style="ellipse;whiteSpace=wrap;html=1;" parent="YjlcLBbJkgOvv29dIScK-1" vertex="1">
          <mxGeometry x="1000" y="1030" width="70" height="40" as="geometry" />
        </mxCell>
        <mxCell id="ekGB9nlK1m-V3cDS4Xhz-63" style="edgeStyle=orthogonalEdgeStyle;rounded=0;orthogonalLoop=1;jettySize=auto;html=1;exitX=0.5;exitY=0;exitDx=0;exitDy=0;entryX=0.5;entryY=1;entryDx=0;entryDy=0;" parent="YjlcLBbJkgOvv29dIScK-1" source="Cg1j_zctwQn2LOcNu0u8-21" target="DLUMgZfNCb0zFbr6v7K_-9" edge="1">
          <mxGeometry relative="1" as="geometry" />
        </mxCell>
        <mxCell id="Cg1j_zctwQn2LOcNu0u8-21" value="&lt;p style=&quot;line-height: 80%;&quot;&gt;&lt;font style=&quot;font-size: 7px;&quot;&gt;Single&lt;/font&gt;&lt;/p&gt;" style="ellipse;whiteSpace=wrap;html=1;" parent="YjlcLBbJkgOvv29dIScK-1" vertex="1">
          <mxGeometry x="836.5" y="1030" width="70" height="40" as="geometry" />
        </mxCell>
        <mxCell id="ekGB9nlK1m-V3cDS4Xhz-1" value="Verify input id" style="ellipse;whiteSpace=wrap;html=1;" parent="YjlcLBbJkgOvv29dIScK-1" vertex="1">
          <mxGeometry x="308" y="470" width="89" height="40" as="geometry" />
        </mxCell>
        <mxCell id="ekGB9nlK1m-V3cDS4Xhz-2" value="&lt;font style=&quot;font-size: 9px;&quot;&gt;&amp;lt;&amp;lt;include&amp;gt;&amp;gt;&lt;/font&gt;" style="html=1;verticalAlign=bottom;labelBackgroundColor=none;endArrow=open;endFill=0;dashed=1;rounded=0;entryX=0;entryY=0.5;entryDx=0;entryDy=0;exitX=1;exitY=0.5;exitDx=0;exitDy=0;" parent="YjlcLBbJkgOvv29dIScK-1" source="Cg1j_zctwQn2LOcNu0u8-12" target="ekGB9nlK1m-V3cDS4Xhz-1" edge="1">
          <mxGeometry width="160" relative="1" as="geometry">
            <mxPoint x="379" y="470" as="sourcePoint" />
            <mxPoint x="420" y="440" as="targetPoint" />
          </mxGeometry>
        </mxCell>
        <mxCell id="ekGB9nlK1m-V3cDS4Xhz-3" value="&lt;font style=&quot;font-size: 10px;&quot;&gt;Display&lt;br&gt;&amp;nbsp;input error&lt;/font&gt;" style="ellipse;whiteSpace=wrap;html=1;" parent="YjlcLBbJkgOvv29dIScK-1" vertex="1">
          <mxGeometry x="443.5" y="510" width="60" height="40" as="geometry" />
        </mxCell>
        <mxCell id="ekGB9nlK1m-V3cDS4Xhz-4" value="&lt;font style=&quot;font-size: 8px;&quot;&gt;&amp;lt;&amp;lt;extend&amp;gt;&amp;gt;&lt;/font&gt;" style="html=1;verticalAlign=bottom;labelBackgroundColor=none;endArrow=open;endFill=0;dashed=1;rounded=0;entryX=1;entryY=0.5;entryDx=0;entryDy=0;exitX=0;exitY=0.5;exitDx=0;exitDy=0;" parent="YjlcLBbJkgOvv29dIScK-1" source="ekGB9nlK1m-V3cDS4Xhz-3" target="ekGB9nlK1m-V3cDS4Xhz-1" edge="1">
          <mxGeometry width="160" relative="1" as="geometry">
            <mxPoint x="410" y="520" as="sourcePoint" />
            <mxPoint x="620" y="760" as="targetPoint" />
          </mxGeometry>
        </mxCell>
        <mxCell id="ekGB9nlK1m-V3cDS4Xhz-50" style="edgeStyle=orthogonalEdgeStyle;rounded=0;orthogonalLoop=1;jettySize=auto;html=1;exitX=0.5;exitY=0;exitDx=0;exitDy=0;entryX=0.5;entryY=1;entryDx=0;entryDy=0;" parent="YjlcLBbJkgOvv29dIScK-1" source="ekGB9nlK1m-V3cDS4Xhz-8" target="DLUMgZfNCb0zFbr6v7K_-7" edge="1">
          <mxGeometry relative="1" as="geometry" />
        </mxCell>
        <mxCell id="ekGB9nlK1m-V3cDS4Xhz-8" value="&lt;p style=&quot;line-height: 80%;&quot;&gt;&lt;font style=&quot;font-size: 7px;&quot;&gt;Protocol number&lt;/font&gt;&lt;/p&gt;" style="ellipse;whiteSpace=wrap;html=1;" parent="YjlcLBbJkgOvv29dIScK-1" vertex="1">
          <mxGeometry x="231" y="1030" width="70" height="40" as="geometry" />
        </mxCell>
        <mxCell id="ekGB9nlK1m-V3cDS4Xhz-51" style="edgeStyle=orthogonalEdgeStyle;rounded=0;orthogonalLoop=1;jettySize=auto;html=1;exitX=0.5;exitY=0;exitDx=0;exitDy=0;entryX=0.5;entryY=1;entryDx=0;entryDy=0;" parent="YjlcLBbJkgOvv29dIScK-1" source="ekGB9nlK1m-V3cDS4Xhz-7" target="DLUMgZfNCb0zFbr6v7K_-7" edge="1">
          <mxGeometry relative="1" as="geometry" />
        </mxCell>
        <mxCell id="ekGB9nlK1m-V3cDS4Xhz-7" value="&lt;p style=&quot;line-height: 80%; font-size: 9px;&quot;&gt;&lt;font style=&quot;font-size: 9px;&quot;&gt;Protocol name&lt;/font&gt;&lt;/p&gt;&lt;p style=&quot;line-height: 80%; font-size: 9px;&quot;&gt;&lt;font style=&quot;font-size: 9px;&quot;&gt;(TCP or UDP)&lt;/font&gt;&lt;/p&gt;" style="ellipse;whiteSpace=wrap;html=1;" parent="YjlcLBbJkgOvv29dIScK-1" vertex="1">
          <mxGeometry x="355.5" y="1030" width="70" height="40" as="geometry" />
        </mxCell>
        <mxCell id="ekGB9nlK1m-V3cDS4Xhz-59" style="edgeStyle=orthogonalEdgeStyle;rounded=0;orthogonalLoop=1;jettySize=auto;html=1;exitX=0.5;exitY=0;exitDx=0;exitDy=0;entryX=0.5;entryY=1;entryDx=0;entryDy=0;" parent="YjlcLBbJkgOvv29dIScK-1" source="ekGB9nlK1m-V3cDS4Xhz-15" target="DLUMgZfNCb0zFbr6v7K_-8" edge="1">
          <mxGeometry relative="1" as="geometry" />
        </mxCell>
        <mxCell id="ekGB9nlK1m-V3cDS4Xhz-15" value="&lt;p style=&quot;line-height: 80%;&quot;&gt;&lt;font style=&quot;font-size: 7px;&quot;&gt;Get all Android Scarewares&lt;/font&gt;&lt;/p&gt;" style="ellipse;whiteSpace=wrap;html=1;" parent="YjlcLBbJkgOvv29dIScK-1" vertex="1">
          <mxGeometry x="619" y="1030" width="70" height="40" as="geometry" />
        </mxCell>
        <mxCell id="ekGB9nlK1m-V3cDS4Xhz-14" value="&lt;p style=&quot;line-height: 80%;&quot;&gt;&lt;font style=&quot;font-size: 7px;&quot;&gt;Fetch the Incidents from database&lt;/font&gt;&lt;/p&gt;" style="ellipse;whiteSpace=wrap;html=1;" parent="YjlcLBbJkgOvv29dIScK-1" vertex="1">
          <mxGeometry x="518" y="1310" width="70" height="40" as="geometry" />
        </mxCell>
        <mxCell id="ekGB9nlK1m-V3cDS4Xhz-57" style="edgeStyle=orthogonalEdgeStyle;rounded=0;orthogonalLoop=1;jettySize=auto;html=1;exitX=0.5;exitY=0;exitDx=0;exitDy=0;entryX=0.5;entryY=1;entryDx=0;entryDy=0;" parent="YjlcLBbJkgOvv29dIScK-1" source="ekGB9nlK1m-V3cDS4Xhz-12" target="DLUMgZfNCb0zFbr6v7K_-8" edge="1">
          <mxGeometry relative="1" as="geometry" />
        </mxCell>
        <mxCell id="ekGB9nlK1m-V3cDS4Xhz-12" value="&lt;span style=&quot;font-size: 7px;&quot;&gt;Get all Benigns&lt;/span&gt;" style="ellipse;whiteSpace=wrap;html=1;" parent="YjlcLBbJkgOvv29dIScK-1" vertex="1">
          <mxGeometry x="444.5" y="1030" width="70" height="40" as="geometry" />
        </mxCell>
        <mxCell id="ekGB9nlK1m-V3cDS4Xhz-60" style="edgeStyle=orthogonalEdgeStyle;rounded=0;orthogonalLoop=1;jettySize=auto;html=1;exitX=0.5;exitY=0;exitDx=0;exitDy=0;entryX=0.5;entryY=1;entryDx=0;entryDy=0;" parent="YjlcLBbJkgOvv29dIScK-1" source="ekGB9nlK1m-V3cDS4Xhz-11" target="DLUMgZfNCb0zFbr6v7K_-8" edge="1">
          <mxGeometry relative="1" as="geometry" />
        </mxCell>
        <mxCell id="ekGB9nlK1m-V3cDS4Xhz-11" value="&lt;p style=&quot;line-height: 80%;&quot;&gt;&lt;font style=&quot;font-size: 7px;&quot;&gt;Get all Android SMS Malware&lt;/font&gt;&lt;/p&gt;" style="ellipse;whiteSpace=wrap;html=1;" parent="YjlcLBbJkgOvv29dIScK-1" vertex="1">
          <mxGeometry x="710" y="1030" width="70" height="40" as="geometry" />
        </mxCell>
        <mxCell id="ekGB9nlK1m-V3cDS4Xhz-58" style="edgeStyle=orthogonalEdgeStyle;rounded=0;orthogonalLoop=1;jettySize=auto;html=1;exitX=0.5;exitY=0;exitDx=0;exitDy=0;entryX=0.5;entryY=1;entryDx=0;entryDy=0;" parent="YjlcLBbJkgOvv29dIScK-1" source="ekGB9nlK1m-V3cDS4Xhz-10" target="DLUMgZfNCb0zFbr6v7K_-8" edge="1">
          <mxGeometry relative="1" as="geometry" />
        </mxCell>
        <mxCell id="ekGB9nlK1m-V3cDS4Xhz-10" value="&lt;p style=&quot;line-height: 80%;&quot;&gt;&lt;font style=&quot;font-size: 7px;&quot;&gt;Get all&amp;nbsp; Android Adwares&lt;/font&gt;&lt;/p&gt;" style="ellipse;whiteSpace=wrap;html=1;" parent="YjlcLBbJkgOvv29dIScK-1" vertex="1">
          <mxGeometry x="530" y="1030" width="70" height="40" as="geometry" />
        </mxCell>
        <mxCell id="ekGB9nlK1m-V3cDS4Xhz-16" value="&lt;p style=&quot;line-height: 80%;&quot;&gt;&lt;font style=&quot;font-size: 7px;&quot;&gt;Display warning message&lt;/font&gt;&lt;/p&gt;" style="ellipse;whiteSpace=wrap;html=1;" parent="YjlcLBbJkgOvv29dIScK-1" vertex="1">
          <mxGeometry x="359" y="760" width="70" height="40" as="geometry" />
        </mxCell>
        <mxCell id="ekGB9nlK1m-V3cDS4Xhz-17" value="&lt;p style=&quot;line-height: 80%;&quot;&gt;&lt;font style=&quot;font-size: 7px;&quot;&gt;Display error message&lt;/font&gt;&lt;/p&gt;" style="ellipse;whiteSpace=wrap;html=1;" parent="YjlcLBbJkgOvv29dIScK-1" vertex="1">
          <mxGeometry x="359" y="700" width="70" height="40" as="geometry" />
        </mxCell>
        <mxCell id="ekGB9nlK1m-V3cDS4Xhz-46" style="edgeStyle=orthogonalEdgeStyle;rounded=0;orthogonalLoop=1;jettySize=auto;html=1;exitX=1;exitY=0.5;exitDx=0;exitDy=0;entryX=0;entryY=0.5;entryDx=0;entryDy=0;" parent="YjlcLBbJkgOvv29dIScK-1" source="ekGB9nlK1m-V3cDS4Xhz-18" target="ekGB9nlK1m-V3cDS4Xhz-38" edge="1">
          <mxGeometry relative="1" as="geometry" />
        </mxCell>
        <mxCell id="ekGB9nlK1m-V3cDS4Xhz-18" value="&lt;p style=&quot;line-height: 80%;&quot;&gt;&lt;font style=&quot;font-size: 7px;&quot;&gt;Verify Port and Protocol fields are integers&lt;/font&gt;&lt;/p&gt;" style="ellipse;whiteSpace=wrap;html=1;" parent="YjlcLBbJkgOvv29dIScK-1" vertex="1">
          <mxGeometry x="347.5" y="650" width="70" height="40" as="geometry" />
        </mxCell>
        <mxCell id="ekGB9nlK1m-V3cDS4Xhz-45" style="edgeStyle=orthogonalEdgeStyle;rounded=0;orthogonalLoop=1;jettySize=auto;html=1;exitX=1;exitY=0.5;exitDx=0;exitDy=0;entryX=0;entryY=0.5;entryDx=0;entryDy=0;" parent="YjlcLBbJkgOvv29dIScK-1" source="ekGB9nlK1m-V3cDS4Xhz-19" target="ekGB9nlK1m-V3cDS4Xhz-38" edge="1">
          <mxGeometry relative="1" as="geometry" />
        </mxCell>
        <mxCell id="ekGB9nlK1m-V3cDS4Xhz-19" value="&lt;p style=&quot;line-height: 80%;&quot;&gt;&lt;font style=&quot;font-size: 7px;&quot;&gt;Verify Category Label&lt;/font&gt;&lt;/p&gt;" style="ellipse;whiteSpace=wrap;html=1;" parent="YjlcLBbJkgOvv29dIScK-1" vertex="1">
          <mxGeometry x="347.5" y="600" width="70" height="40" as="geometry" />
        </mxCell>
        <mxCell id="ekGB9nlK1m-V3cDS4Xhz-22" value="&lt;p style=&quot;line-height: 80%;&quot;&gt;&lt;font style=&quot;font-size: 7px;&quot;&gt;Verify that that starting &amp;gt; ending port&lt;/font&gt;&lt;/p&gt;" style="ellipse;whiteSpace=wrap;html=1;" parent="YjlcLBbJkgOvv29dIScK-1" vertex="1">
          <mxGeometry x="1085" y="1120" width="70" height="40" as="geometry" />
        </mxCell>
        <mxCell id="ekGB9nlK1m-V3cDS4Xhz-23" value="&lt;p style=&quot;line-height: 80%;&quot;&gt;&lt;font style=&quot;font-size: 7px;&quot;&gt;Verify that input is/are integer number(s)&lt;/font&gt;&lt;/p&gt;" style="ellipse;whiteSpace=wrap;html=1;" parent="YjlcLBbJkgOvv29dIScK-1" vertex="1">
          <mxGeometry x="920.5" y="1120" width="70" height="40" as="geometry" />
        </mxCell>
        <mxCell id="ekGB9nlK1m-V3cDS4Xhz-25" value="&lt;p style=&quot;line-height: 80%;&quot;&gt;&lt;font style=&quot;font-size: 7px;&quot;&gt;Verify that input either TCP or UDP&lt;/font&gt;&lt;/p&gt;" style="ellipse;whiteSpace=wrap;html=1;" parent="YjlcLBbJkgOvv29dIScK-1" vertex="1">
          <mxGeometry x="317.5" y="1110" width="70" height="40" as="geometry" />
        </mxCell>
        <mxCell id="ekGB9nlK1m-V3cDS4Xhz-26" value="&lt;span style=&quot;font-size: 7px;&quot;&gt;Verify that input is an integer number&lt;/span&gt;" style="ellipse;whiteSpace=wrap;html=1;" parent="YjlcLBbJkgOvv29dIScK-1" vertex="1">
          <mxGeometry x="152.5" y="1100" width="70" height="40" as="geometry" />
        </mxCell>
        <mxCell id="ekGB9nlK1m-V3cDS4Xhz-27" value="&lt;p style=&quot;line-height: 80%;&quot;&gt;&lt;font style=&quot;font-size: 8px;&quot;&gt;Display message no Incident in this category&lt;/font&gt;&lt;br&gt;&lt;/p&gt;" style="ellipse;whiteSpace=wrap;html=1;" parent="YjlcLBbJkgOvv29dIScK-1" vertex="1">
          <mxGeometry x="500" y="250" width="70" height="40" as="geometry" />
        </mxCell>
        <mxCell id="ekGB9nlK1m-V3cDS4Xhz-28" value="&lt;p style=&quot;line-height: 80%;&quot;&gt;&lt;font style=&quot;font-size: 7px;&quot;&gt;Import the top 15 samples from the database&lt;/font&gt;&lt;/p&gt;" style="ellipse;whiteSpace=wrap;html=1;" parent="YjlcLBbJkgOvv29dIScK-1" vertex="1">
          <mxGeometry x="395.5" y="290" width="70" height="40" as="geometry" />
        </mxCell>
        <mxCell id="ekGB9nlK1m-V3cDS4Xhz-29" value="&lt;font style=&quot;font-size: 9px;&quot;&gt;Fetch total numbers from the samples&lt;/font&gt;" style="ellipse;whiteSpace=wrap;html=1;" parent="YjlcLBbJkgOvv29dIScK-1" vertex="1">
          <mxGeometry x="175.5" y="160" width="92.5" height="40" as="geometry" />
        </mxCell>
        <mxCell id="ekGB9nlK1m-V3cDS4Xhz-30" value="&lt;font style=&quot;font-size: 8px;&quot;&gt;&amp;lt;&amp;lt;include&amp;gt;&amp;gt;&lt;/font&gt;" style="html=1;verticalAlign=bottom;labelBackgroundColor=none;endArrow=open;endFill=0;dashed=1;rounded=0;entryX=0;entryY=0.5;entryDx=0;entryDy=0;exitX=1;exitY=0.5;exitDx=0;exitDy=0;" parent="YjlcLBbJkgOvv29dIScK-1" source="YjlcLBbJkgOvv29dIScK-5" target="ekGB9nlK1m-V3cDS4Xhz-29" edge="1">
          <mxGeometry x="0.0052" width="160" relative="1" as="geometry">
            <mxPoint x="88" y="90" as="sourcePoint" />
            <mxPoint x="186" y="70" as="targetPoint" />
            <mxPoint as="offset" />
          </mxGeometry>
        </mxCell>
        <mxCell id="ekGB9nlK1m-V3cDS4Xhz-33" value="&lt;font style=&quot;font-size: 9px;&quot;&gt;&amp;lt;&amp;lt;include&amp;gt;&amp;gt;&lt;/font&gt;" style="html=1;verticalAlign=bottom;labelBackgroundColor=none;endArrow=open;endFill=0;dashed=1;rounded=0;entryX=0;entryY=0;entryDx=0;entryDy=0;exitX=1;exitY=0.5;exitDx=0;exitDy=0;" parent="YjlcLBbJkgOvv29dIScK-1" source="Cg1j_zctwQn2LOcNu0u8-5" target="ekGB9nlK1m-V3cDS4Xhz-28" edge="1">
          <mxGeometry width="160" relative="1" as="geometry">
            <mxPoint x="376.5" y="410" as="sourcePoint" />
            <mxPoint x="452.5" y="390" as="targetPoint" />
          </mxGeometry>
        </mxCell>
        <mxCell id="ekGB9nlK1m-V3cDS4Xhz-31" value="&lt;font style=&quot;font-size: 9px;&quot;&gt;&amp;lt;&amp;lt;include&amp;gt;&amp;gt;&lt;/font&gt;" style="html=1;verticalAlign=bottom;labelBackgroundColor=none;endArrow=open;endFill=0;dashed=1;rounded=0;entryX=0;entryY=0.5;entryDx=0;entryDy=0;exitX=1;exitY=0.5;exitDx=0;exitDy=0;" parent="YjlcLBbJkgOvv29dIScK-1" source="Cg1j_zctwQn2LOcNu0u8-6" target="ekGB9nlK1m-V3cDS4Xhz-28" edge="1">
          <mxGeometry width="160" relative="1" as="geometry">
            <mxPoint x="356.5" y="390" as="sourcePoint" />
            <mxPoint x="432.5" y="370" as="targetPoint" />
          </mxGeometry>
        </mxCell>
        <mxCell id="ekGB9nlK1m-V3cDS4Xhz-32" value="&lt;font style=&quot;font-size: 9px;&quot;&gt;&amp;lt;&amp;lt;include&amp;gt;&amp;gt;&lt;/font&gt;" style="html=1;verticalAlign=bottom;labelBackgroundColor=none;endArrow=open;endFill=0;dashed=1;rounded=0;entryX=0;entryY=1;entryDx=0;entryDy=0;exitX=1;exitY=0.5;exitDx=0;exitDy=0;" parent="YjlcLBbJkgOvv29dIScK-1" source="Cg1j_zctwQn2LOcNu0u8-7" target="ekGB9nlK1m-V3cDS4Xhz-28" edge="1">
          <mxGeometry width="160" relative="1" as="geometry">
            <mxPoint x="366.5" y="400" as="sourcePoint" />
            <mxPoint x="442.5" y="380" as="targetPoint" />
          </mxGeometry>
        </mxCell>
        <mxCell id="ekGB9nlK1m-V3cDS4Xhz-34" value="&amp;lt;&amp;lt;include&amp;gt;&amp;gt;" style="html=1;verticalAlign=bottom;labelBackgroundColor=none;endArrow=open;endFill=0;dashed=1;rounded=0;entryX=0;entryY=0.5;entryDx=0;entryDy=0;exitX=1;exitY=0;exitDx=0;exitDy=0;" parent="YjlcLBbJkgOvv29dIScK-1" source="Cg1j_zctwQn2LOcNu0u8-18" target="ekGB9nlK1m-V3cDS4Xhz-18" edge="1">
          <mxGeometry width="160" relative="1" as="geometry">
            <mxPoint x="119" y="620" as="sourcePoint" />
            <mxPoint x="279" y="620" as="targetPoint" />
          </mxGeometry>
        </mxCell>
        <mxCell id="ekGB9nlK1m-V3cDS4Xhz-35" value="&amp;lt;&amp;lt;include&amp;gt;&amp;gt;" style="html=1;verticalAlign=bottom;labelBackgroundColor=none;endArrow=open;endFill=0;dashed=1;rounded=0;entryX=0;entryY=0.5;entryDx=0;entryDy=0;exitX=1;exitY=0;exitDx=0;exitDy=0;" parent="YjlcLBbJkgOvv29dIScK-1" source="Cg1j_zctwQn2LOcNu0u8-18" target="ekGB9nlK1m-V3cDS4Xhz-19" edge="1">
          <mxGeometry width="160" relative="1" as="geometry">
            <mxPoint x="129" y="630" as="sourcePoint" />
            <mxPoint x="289" y="630" as="targetPoint" />
          </mxGeometry>
        </mxCell>
        <mxCell id="ekGB9nlK1m-V3cDS4Xhz-36" value="&amp;lt;&amp;lt;extend&amp;gt;&amp;gt;" style="html=1;verticalAlign=bottom;labelBackgroundColor=none;endArrow=open;endFill=0;dashed=1;rounded=0;entryX=1;entryY=0.5;entryDx=0;entryDy=0;exitX=0;exitY=0.5;exitDx=0;exitDy=0;" parent="YjlcLBbJkgOvv29dIScK-1" source="ekGB9nlK1m-V3cDS4Xhz-17" target="Cg1j_zctwQn2LOcNu0u8-18" edge="1">
          <mxGeometry width="160" relative="1" as="geometry">
            <mxPoint x="159" y="740" as="sourcePoint" />
            <mxPoint x="319" y="740" as="targetPoint" />
          </mxGeometry>
        </mxCell>
        <mxCell id="ekGB9nlK1m-V3cDS4Xhz-37" value="&amp;lt;&amp;lt;extend&amp;gt;&amp;gt;" style="html=1;verticalAlign=bottom;labelBackgroundColor=none;endArrow=open;endFill=0;dashed=1;rounded=0;entryX=1;entryY=0.5;entryDx=0;entryDy=0;exitX=0;exitY=0.5;exitDx=0;exitDy=0;" parent="YjlcLBbJkgOvv29dIScK-1" source="ekGB9nlK1m-V3cDS4Xhz-16" target="Cg1j_zctwQn2LOcNu0u8-18" edge="1">
          <mxGeometry width="160" relative="1" as="geometry">
            <mxPoint x="169" y="750" as="sourcePoint" />
            <mxPoint x="329" y="750" as="targetPoint" />
          </mxGeometry>
        </mxCell>
        <mxCell id="ekGB9nlK1m-V3cDS4Xhz-38" value="&lt;p style=&quot;line-height: 80%;&quot;&gt;&lt;font style=&quot;font-size: 7px;&quot;&gt;Verify input&lt;/font&gt;&lt;/p&gt;" style="ellipse;whiteSpace=wrap;html=1;" parent="YjlcLBbJkgOvv29dIScK-1" vertex="1">
          <mxGeometry x="480" y="620" width="70" height="40" as="geometry" />
        </mxCell>
        <mxCell id="ekGB9nlK1m-V3cDS4Xhz-41" value="&lt;p style=&quot;line-height: 80%;&quot;&gt;&lt;font style=&quot;font-size: 7px;&quot;&gt;Insert new Incident to the database&lt;/font&gt;&lt;/p&gt;" style="ellipse;whiteSpace=wrap;html=1;" parent="YjlcLBbJkgOvv29dIScK-1" vertex="1">
          <mxGeometry x="605.5" y="620" width="70" height="40" as="geometry" />
        </mxCell>
        <mxCell id="ekGB9nlK1m-V3cDS4Xhz-42" value="&amp;lt;&amp;lt;include&amp;gt;&amp;gt;" style="html=1;verticalAlign=bottom;labelBackgroundColor=none;endArrow=open;endFill=0;dashed=1;rounded=0;entryX=0;entryY=0.5;entryDx=0;entryDy=0;exitX=1;exitY=0.5;exitDx=0;exitDy=0;" parent="YjlcLBbJkgOvv29dIScK-1" source="ekGB9nlK1m-V3cDS4Xhz-38" target="ekGB9nlK1m-V3cDS4Xhz-41" edge="1">
          <mxGeometry width="160" relative="1" as="geometry">
            <mxPoint x="228" y="686" as="sourcePoint" />
            <mxPoint x="358" y="630" as="targetPoint" />
          </mxGeometry>
        </mxCell>
        <mxCell id="ekGB9nlK1m-V3cDS4Xhz-43" value="&lt;p style=&quot;line-height: 80%;&quot;&gt;&lt;font style=&quot;font-size: 7px;&quot;&gt;Return the IncidentId of the new insert&lt;/font&gt;&lt;/p&gt;" style="ellipse;whiteSpace=wrap;html=1;" parent="YjlcLBbJkgOvv29dIScK-1" vertex="1">
          <mxGeometry x="728" y="620" width="70" height="40" as="geometry" />
        </mxCell>
        <mxCell id="ekGB9nlK1m-V3cDS4Xhz-44" value="&amp;lt;&amp;lt;include&amp;gt;&amp;gt;" style="html=1;verticalAlign=bottom;labelBackgroundColor=none;endArrow=open;endFill=0;dashed=1;rounded=0;entryX=0;entryY=0.5;entryDx=0;entryDy=0;exitX=1;exitY=0.5;exitDx=0;exitDy=0;" parent="YjlcLBbJkgOvv29dIScK-1" source="ekGB9nlK1m-V3cDS4Xhz-41" target="ekGB9nlK1m-V3cDS4Xhz-43" edge="1">
          <mxGeometry width="160" relative="1" as="geometry">
            <mxPoint x="560" y="650" as="sourcePoint" />
            <mxPoint x="616" y="650" as="targetPoint" />
          </mxGeometry>
        </mxCell>
        <mxCell id="ekGB9nlK1m-V3cDS4Xhz-53" value="&amp;lt;&amp;lt;include&amp;gt;&amp;gt;" style="html=1;verticalAlign=bottom;labelBackgroundColor=none;endArrow=open;endFill=0;dashed=1;rounded=0;exitX=0;exitY=1;exitDx=0;exitDy=0;entryX=0.5;entryY=0;entryDx=0;entryDy=0;" parent="YjlcLBbJkgOvv29dIScK-1" source="ekGB9nlK1m-V3cDS4Xhz-8" target="ekGB9nlK1m-V3cDS4Xhz-26" edge="1">
          <mxGeometry width="160" relative="1" as="geometry">
            <mxPoint x="120" y="1110" as="sourcePoint" />
            <mxPoint x="280" y="1110" as="targetPoint" />
          </mxGeometry>
        </mxCell>
        <mxCell id="ekGB9nlK1m-V3cDS4Xhz-54" value="&amp;lt;&amp;lt;include&amp;gt;&amp;gt;" style="html=1;verticalAlign=bottom;labelBackgroundColor=none;endArrow=open;endFill=0;dashed=1;rounded=0;exitX=0;exitY=1;exitDx=0;exitDy=0;entryX=0.5;entryY=0;entryDx=0;entryDy=0;" parent="YjlcLBbJkgOvv29dIScK-1" source="ekGB9nlK1m-V3cDS4Xhz-7" target="ekGB9nlK1m-V3cDS4Xhz-25" edge="1">
          <mxGeometry width="160" relative="1" as="geometry">
            <mxPoint x="251" y="1074" as="sourcePoint" />
            <mxPoint x="132" y="1120" as="targetPoint" />
          </mxGeometry>
        </mxCell>
        <mxCell id="ekGB9nlK1m-V3cDS4Xhz-61" value="&lt;p style=&quot;line-height: 80%;&quot;&gt;&lt;font style=&quot;font-size: 7px;&quot;&gt;Display message no Incident matched in the samples&lt;/font&gt;&lt;/p&gt;" style="ellipse;whiteSpace=wrap;html=1;" parent="YjlcLBbJkgOvv29dIScK-1" vertex="1">
          <mxGeometry x="397" y="1350" width="70" height="40" as="geometry" />
        </mxCell>
        <mxCell id="ekGB9nlK1m-V3cDS4Xhz-65" value="&lt;font style=&quot;font-size: 7px;&quot;&gt;&amp;lt;&amp;lt;include&amp;gt;&amp;gt;&lt;/font&gt;" style="html=1;verticalAlign=bottom;labelBackgroundColor=none;endArrow=open;endFill=0;dashed=1;rounded=0;exitX=1;exitY=0.5;exitDx=0;exitDy=0;entryX=0.5;entryY=0;entryDx=0;entryDy=0;" parent="YjlcLBbJkgOvv29dIScK-1" source="Cg1j_zctwQn2LOcNu0u8-21" target="ekGB9nlK1m-V3cDS4Xhz-23" edge="1">
          <mxGeometry width="160" relative="1" as="geometry">
            <mxPoint x="849.5" y="1150" as="sourcePoint" />
            <mxPoint x="836.5" y="1196" as="targetPoint" />
          </mxGeometry>
        </mxCell>
        <mxCell id="ekGB9nlK1m-V3cDS4Xhz-66" value="&lt;font style=&quot;font-size: 8px;&quot;&gt;&amp;lt;&amp;lt;include&amp;gt;&amp;gt;&lt;/font&gt;" style="html=1;verticalAlign=bottom;labelBackgroundColor=none;endArrow=open;endFill=0;dashed=1;rounded=0;exitX=0;exitY=0.5;exitDx=0;exitDy=0;entryX=0.5;entryY=0;entryDx=0;entryDy=0;" parent="YjlcLBbJkgOvv29dIScK-1" source="Cg1j_zctwQn2LOcNu0u8-22" target="ekGB9nlK1m-V3cDS4Xhz-23" edge="1">
          <mxGeometry width="160" relative="1" as="geometry">
            <mxPoint x="917" y="1060" as="sourcePoint" />
            <mxPoint x="846.5" y="1206" as="targetPoint" />
          </mxGeometry>
        </mxCell>
        <mxCell id="ekGB9nlK1m-V3cDS4Xhz-67" value="&amp;lt;&amp;lt;include&amp;gt;&amp;gt;" style="html=1;verticalAlign=bottom;labelBackgroundColor=none;endArrow=open;endFill=0;dashed=1;rounded=0;exitX=1;exitY=0.5;exitDx=0;exitDy=0;entryX=0.5;entryY=0;entryDx=0;entryDy=0;" parent="YjlcLBbJkgOvv29dIScK-1" source="Cg1j_zctwQn2LOcNu0u8-22" target="ekGB9nlK1m-V3cDS4Xhz-22" edge="1">
          <mxGeometry width="160" relative="1" as="geometry">
            <mxPoint x="927" y="1070" as="sourcePoint" />
            <mxPoint x="856.5" y="1216" as="targetPoint" />
          </mxGeometry>
        </mxCell>
        <mxCell id="ekGB9nlK1m-V3cDS4Xhz-74" value="&amp;lt;&amp;lt;include&amp;gt;&amp;gt;" style="html=1;verticalAlign=bottom;labelBackgroundColor=none;endArrow=open;endFill=0;dashed=1;rounded=0;exitX=0.5;exitY=1;exitDx=0;exitDy=0;entryX=0;entryY=0;entryDx=0;entryDy=0;" parent="YjlcLBbJkgOvv29dIScK-1" source="ekGB9nlK1m-V3cDS4Xhz-26" target="ekGB9nlK1m-V3cDS4Xhz-14" edge="1">
          <mxGeometry width="160" relative="1" as="geometry">
            <mxPoint x="311" y="1134" as="sourcePoint" />
            <mxPoint x="258" y="1170" as="targetPoint" />
          </mxGeometry>
        </mxCell>
        <mxCell id="ekGB9nlK1m-V3cDS4Xhz-68" value="&amp;lt;&amp;lt;include&amp;gt;&amp;gt;" style="html=1;verticalAlign=bottom;labelBackgroundColor=none;endArrow=open;endFill=0;dashed=1;rounded=0;exitX=0.5;exitY=1;exitDx=0;exitDy=0;entryX=0;entryY=0;entryDx=0;entryDy=0;" parent="YjlcLBbJkgOvv29dIScK-1" source="ekGB9nlK1m-V3cDS4Xhz-25" target="ekGB9nlK1m-V3cDS4Xhz-14" edge="1">
          <mxGeometry width="160" relative="1" as="geometry">
            <mxPoint x="251" y="1074" as="sourcePoint" />
            <mxPoint x="198" y="1110" as="targetPoint" />
          </mxGeometry>
        </mxCell>
        <mxCell id="ekGB9nlK1m-V3cDS4Xhz-71" value="&lt;font style=&quot;font-size: 7px;&quot;&gt;&amp;lt;&amp;lt;include&amp;gt;&amp;gt;&lt;/font&gt;" style="html=1;verticalAlign=bottom;labelBackgroundColor=none;endArrow=open;endFill=0;dashed=1;rounded=0;exitX=0.5;exitY=1;exitDx=0;exitDy=0;entryX=0.5;entryY=0;entryDx=0;entryDy=0;" parent="YjlcLBbJkgOvv29dIScK-1" source="ekGB9nlK1m-V3cDS4Xhz-12" target="ekGB9nlK1m-V3cDS4Xhz-14" edge="1">
          <mxGeometry width="160" relative="1" as="geometry">
            <mxPoint x="643" y="1130" as="sourcePoint" />
            <mxPoint x="590" y="1166" as="targetPoint" />
          </mxGeometry>
        </mxCell>
        <mxCell id="ekGB9nlK1m-V3cDS4Xhz-72" value="&lt;font style=&quot;font-size: 7px;&quot;&gt;&amp;lt;&amp;lt;include&amp;gt;&amp;gt;&lt;/font&gt;" style="html=1;verticalAlign=bottom;labelBackgroundColor=none;endArrow=open;endFill=0;dashed=1;rounded=0;exitX=0.5;exitY=1;exitDx=0;exitDy=0;entryX=0.5;entryY=0;entryDx=0;entryDy=0;" parent="YjlcLBbJkgOvv29dIScK-1" source="ekGB9nlK1m-V3cDS4Xhz-15" target="ekGB9nlK1m-V3cDS4Xhz-14" edge="1">
          <mxGeometry width="160" relative="1" as="geometry">
            <mxPoint x="653" y="1140" as="sourcePoint" />
            <mxPoint x="600" y="1176" as="targetPoint" />
          </mxGeometry>
        </mxCell>
        <mxCell id="ekGB9nlK1m-V3cDS4Xhz-73" value="&lt;font style=&quot;font-size: 7px;&quot;&gt;&amp;lt;&amp;lt;include&amp;gt;&amp;gt;&lt;/font&gt;" style="html=1;verticalAlign=bottom;labelBackgroundColor=none;endArrow=open;endFill=0;dashed=1;rounded=0;entryX=0.5;entryY=0;entryDx=0;entryDy=0;exitX=0.5;exitY=1;exitDx=0;exitDy=0;" parent="YjlcLBbJkgOvv29dIScK-1" source="ekGB9nlK1m-V3cDS4Xhz-10" target="ekGB9nlK1m-V3cDS4Xhz-14" edge="1">
          <mxGeometry width="160" relative="1" as="geometry">
            <mxPoint x="663" y="1146" as="sourcePoint" />
            <mxPoint x="610" y="1186" as="targetPoint" />
          </mxGeometry>
        </mxCell>
        <mxCell id="ekGB9nlK1m-V3cDS4Xhz-70" value="&lt;font style=&quot;font-size: 7px;&quot;&gt;&amp;lt;&amp;lt;include&amp;gt;&amp;gt;&lt;/font&gt;" style="html=1;verticalAlign=bottom;labelBackgroundColor=none;endArrow=open;endFill=0;dashed=1;rounded=0;exitX=0.5;exitY=1;exitDx=0;exitDy=0;entryX=0.5;entryY=0;entryDx=0;entryDy=0;" parent="YjlcLBbJkgOvv29dIScK-1" source="ekGB9nlK1m-V3cDS4Xhz-11" target="ekGB9nlK1m-V3cDS4Xhz-14" edge="1">
          <mxGeometry width="160" relative="1" as="geometry">
            <mxPoint x="271" y="1094" as="sourcePoint" />
            <mxPoint x="218" y="1130" as="targetPoint" />
          </mxGeometry>
        </mxCell>
        <mxCell id="ekGB9nlK1m-V3cDS4Xhz-75" value="&amp;lt;&amp;lt;include&amp;gt;&amp;gt;" style="html=1;verticalAlign=bottom;labelBackgroundColor=none;endArrow=open;endFill=0;dashed=1;rounded=0;exitX=0.5;exitY=1;exitDx=0;exitDy=0;entryX=1;entryY=0;entryDx=0;entryDy=0;" parent="YjlcLBbJkgOvv29dIScK-1" source="ekGB9nlK1m-V3cDS4Xhz-23" target="ekGB9nlK1m-V3cDS4Xhz-14" edge="1">
          <mxGeometry width="160" relative="1" as="geometry">
            <mxPoint x="851" y="1254" as="sourcePoint" />
            <mxPoint x="798" y="1290" as="targetPoint" />
          </mxGeometry>
        </mxCell>
        <mxCell id="ekGB9nlK1m-V3cDS4Xhz-76" value="&amp;lt;&amp;lt;include&amp;gt;&amp;gt;" style="html=1;verticalAlign=bottom;labelBackgroundColor=none;endArrow=open;endFill=0;dashed=1;rounded=0;exitX=0.5;exitY=1;exitDx=0;exitDy=0;entryX=1;entryY=0;entryDx=0;entryDy=0;" parent="YjlcLBbJkgOvv29dIScK-1" source="ekGB9nlK1m-V3cDS4Xhz-22" target="ekGB9nlK1m-V3cDS4Xhz-14" edge="1">
          <mxGeometry width="160" relative="1" as="geometry">
            <mxPoint x="861" y="1264" as="sourcePoint" />
            <mxPoint x="810" y="1290" as="targetPoint" />
          </mxGeometry>
        </mxCell>
        <mxCell id="ekGB9nlK1m-V3cDS4Xhz-78" value="&amp;lt;&amp;lt;extend&amp;gt;&amp;gt;" style="html=1;verticalAlign=bottom;labelBackgroundColor=none;endArrow=open;endFill=0;dashed=1;rounded=0;exitX=1;exitY=0;exitDx=0;exitDy=0;entryX=0;entryY=0.5;entryDx=0;entryDy=0;" parent="YjlcLBbJkgOvv29dIScK-1" source="ekGB9nlK1m-V3cDS4Xhz-61" target="ekGB9nlK1m-V3cDS4Xhz-14" edge="1">
          <mxGeometry width="160" relative="1" as="geometry">
            <mxPoint x="200" y="1310" as="sourcePoint" />
            <mxPoint x="360" y="1310" as="targetPoint" />
          </mxGeometry>
        </mxCell>
        <mxCell id="ekGB9nlK1m-V3cDS4Xhz-84" value="&lt;font style=&quot;font-size: 8px;&quot;&gt;&amp;lt;&amp;lt;extend&amp;gt;&amp;gt;&lt;/font&gt;" style="edgeStyle=none;html=1;startArrow=open;endArrow=none;startSize=12;verticalAlign=bottom;dashed=1;labelBackgroundColor=none;rounded=0;entryX=0;entryY=0.5;entryDx=0;entryDy=0;exitX=1;exitY=0;exitDx=0;exitDy=0;" parent="YjlcLBbJkgOvv29dIScK-1" source="ekGB9nlK1m-V3cDS4Xhz-28" target="ekGB9nlK1m-V3cDS4Xhz-27" edge="1">
          <mxGeometry width="160" relative="1" as="geometry">
            <mxPoint x="370" y="210" as="sourcePoint" />
            <mxPoint x="530" y="210" as="targetPoint" />
          </mxGeometry>
        </mxCell>
        <mxCell id="ekGB9nlK1m-V3cDS4Xhz-91" value="&lt;p style=&quot;line-height: 80%;&quot;&gt;&lt;font style=&quot;font-size: 7px;&quot;&gt;Register account&lt;/font&gt;&lt;/p&gt;" style="ellipse;whiteSpace=wrap;html=1;" parent="YjlcLBbJkgOvv29dIScK-1" vertex="1">
          <mxGeometry x="1169.5" y="580" width="69.5" height="40" as="geometry" />
        </mxCell>
        <mxCell id="ekGB9nlK1m-V3cDS4Xhz-92" value="&lt;p style=&quot;line-height: 80%;&quot;&gt;&lt;font style=&quot;font-size: 7px;&quot;&gt;Reset password&lt;/font&gt;&lt;/p&gt;" style="ellipse;whiteSpace=wrap;html=1;" parent="YjlcLBbJkgOvv29dIScK-1" vertex="1">
          <mxGeometry x="1169" y="700" width="70" height="40" as="geometry" />
        </mxCell>
        <mxCell id="ekGB9nlK1m-V3cDS4Xhz-99" style="edgeStyle=orthogonalEdgeStyle;rounded=0;orthogonalLoop=1;jettySize=auto;html=1;exitX=1;exitY=0.5;exitDx=0;exitDy=0;entryX=0;entryY=0.5;entryDx=0;entryDy=0;" parent="YjlcLBbJkgOvv29dIScK-1" source="ekGB9nlK1m-V3cDS4Xhz-93" target="ekGB9nlK1m-V3cDS4Xhz-94" edge="1">
          <mxGeometry relative="1" as="geometry" />
        </mxCell>
        <mxCell id="ekGB9nlK1m-V3cDS4Xhz-93" value="&lt;p style=&quot;line-height: 80%;&quot;&gt;&lt;font style=&quot;font-size: 7px;&quot;&gt;Insert a csv of new entries&lt;/font&gt;&lt;/p&gt;" style="ellipse;whiteSpace=wrap;html=1;" parent="YjlcLBbJkgOvv29dIScK-1" vertex="1">
          <mxGeometry x="969" y="500" width="70" height="40" as="geometry" />
        </mxCell>
        <mxCell id="ekGB9nlK1m-V3cDS4Xhz-97" style="edgeStyle=orthogonalEdgeStyle;rounded=0;orthogonalLoop=1;jettySize=auto;html=1;exitX=1;exitY=0.5;exitDx=0;exitDy=0;entryX=0;entryY=0.5;entryDx=0;entryDy=0;" parent="YjlcLBbJkgOvv29dIScK-1" source="ekGB9nlK1m-V3cDS4Xhz-96" target="ekGB9nlK1m-V3cDS4Xhz-94" edge="1">
          <mxGeometry relative="1" as="geometry" />
        </mxCell>
        <mxCell id="ekGB9nlK1m-V3cDS4Xhz-96" value="&lt;p style=&quot;line-height: 80%;&quot;&gt;&lt;font style=&quot;font-size: 7px;&quot;&gt;Delete entries&lt;/font&gt;&lt;/p&gt;" style="ellipse;whiteSpace=wrap;html=1;" parent="YjlcLBbJkgOvv29dIScK-1" vertex="1">
          <mxGeometry x="969" y="340" width="70" height="40" as="geometry" />
        </mxCell>
        <mxCell id="ekGB9nlK1m-V3cDS4Xhz-98" style="edgeStyle=orthogonalEdgeStyle;rounded=0;orthogonalLoop=1;jettySize=auto;html=1;exitX=1;exitY=0.5;exitDx=0;exitDy=0;" parent="YjlcLBbJkgOvv29dIScK-1" source="ekGB9nlK1m-V3cDS4Xhz-95" edge="1">
          <mxGeometry relative="1" as="geometry">
            <mxPoint x="1169" y="440.19047619047615" as="targetPoint" />
          </mxGeometry>
        </mxCell>
        <mxCell id="ekGB9nlK1m-V3cDS4Xhz-95" value="&lt;p style=&quot;line-height: 80%;&quot;&gt;&lt;font style=&quot;font-size: 7px;&quot;&gt;Update entries&lt;/font&gt;&lt;/p&gt;" style="ellipse;whiteSpace=wrap;html=1;" parent="YjlcLBbJkgOvv29dIScK-1" vertex="1">
          <mxGeometry x="969" y="420" width="70" height="40" as="geometry" />
        </mxCell>
        <mxCell id="ekGB9nlK1m-V3cDS4Xhz-94" value="&lt;p style=&quot;line-height: 80%;&quot;&gt;&lt;font style=&quot;font-size: 7px;&quot;&gt;Direct manipulation of the data&lt;/font&gt;&lt;/p&gt;" style="ellipse;whiteSpace=wrap;html=1;" parent="YjlcLBbJkgOvv29dIScK-1" vertex="1">
          <mxGeometry x="1169.5" y="420" width="70" height="40" as="geometry" />
        </mxCell>
        <mxCell id="YjlcLBbJkgOvv29dIScK-2" value="User&lt;br&gt;(Operator)" style="shape=umlActor;verticalLabelPosition=bottom;verticalAlign=top;html=1;outlineConnect=0;" parent="1" vertex="1">
          <mxGeometry x="-1590" y="1180" width="30" height="60" as="geometry" />
        </mxCell>
        <mxCell id="YjlcLBbJkgOvv29dIScK-9" value="" style="endArrow=none;html=1;rounded=0;exitX=0.5;exitY=0.5;exitDx=0;exitDy=0;exitPerimeter=0;entryX=0;entryY=0.5;entryDx=0;entryDy=0;" parent="1" source="YjlcLBbJkgOvv29dIScK-2" target="YjlcLBbJkgOvv29dIScK-4" edge="1">
          <mxGeometry width="50" height="50" relative="1" as="geometry">
            <mxPoint x="-1250" y="1130" as="sourcePoint" />
            <mxPoint x="-1430" y="1170" as="targetPoint" />
          </mxGeometry>
        </mxCell>
        <mxCell id="YjlcLBbJkgOvv29dIScK-10" value="" style="endArrow=none;html=1;rounded=0;exitX=0.5;exitY=0.5;exitDx=0;exitDy=0;exitPerimeter=0;entryX=0;entryY=0.5;entryDx=0;entryDy=0;" parent="1" source="YjlcLBbJkgOvv29dIScK-2" target="YjlcLBbJkgOvv29dIScK-5" edge="1">
          <mxGeometry width="50" height="50" relative="1" as="geometry">
            <mxPoint x="-1260" y="1170" as="sourcePoint" />
            <mxPoint x="-1390" y="1200" as="targetPoint" />
          </mxGeometry>
        </mxCell>
        <mxCell id="DLUMgZfNCb0zFbr6v7K_-6" value="" style="endArrow=none;html=1;rounded=0;exitX=0.5;exitY=0.5;exitDx=0;exitDy=0;exitPerimeter=0;entryX=0;entryY=0.5;entryDx=0;entryDy=0;" parent="1" source="YjlcLBbJkgOvv29dIScK-2" target="YjlcLBbJkgOvv29dIScK-6" edge="1">
          <mxGeometry width="50" height="50" relative="1" as="geometry">
            <mxPoint x="-1280" y="1240" as="sourcePoint" />
            <mxPoint x="-1360" y="1220" as="targetPoint" />
          </mxGeometry>
        </mxCell>
        <mxCell id="DLUMgZfNCb0zFbr6v7K_-12" value="" style="endArrow=none;html=1;rounded=0;exitX=0.5;exitY=0.5;exitDx=0;exitDy=0;exitPerimeter=0;entryX=0;entryY=0.5;entryDx=0;entryDy=0;" parent="1" source="YjlcLBbJkgOvv29dIScK-2" target="Cg1j_zctwQn2LOcNu0u8-13" edge="1">
          <mxGeometry width="50" height="50" relative="1" as="geometry">
            <mxPoint x="-1320" y="1340" as="sourcePoint" />
            <mxPoint x="-1390" y="1260" as="targetPoint" />
          </mxGeometry>
        </mxCell>
        <mxCell id="YjlcLBbJkgOvv29dIScK-3" value="Admin&lt;br&gt;(Technical support)" style="shape=umlActor;verticalLabelPosition=bottom;verticalAlign=top;html=1;outlineConnect=0;" parent="1" vertex="1">
          <mxGeometry x="190" y="1120" width="30" height="60" as="geometry" />
        </mxCell>
        <mxCell id="ekGB9nlK1m-V3cDS4Xhz-88" value="" style="endArrow=none;html=1;rounded=0;entryX=0.5;entryY=0.5;entryDx=0;entryDy=0;entryPerimeter=0;exitX=0;exitY=0.5;exitDx=0;exitDy=0;" parent="1" source="DLUMgZfNCb0zFbr6v7K_-10" target="YjlcLBbJkgOvv29dIScK-2" edge="1">
          <mxGeometry width="50" height="50" relative="1" as="geometry">
            <mxPoint x="-1430" y="1370" as="sourcePoint" />
            <mxPoint x="-1380" y="1320" as="targetPoint" />
          </mxGeometry>
        </mxCell>
        <mxCell id="ekGB9nlK1m-V3cDS4Xhz-89" value="" style="endArrow=none;html=1;rounded=0;entryX=0.5;entryY=0.5;entryDx=0;entryDy=0;entryPerimeter=0;" parent="1" target="YjlcLBbJkgOvv29dIScK-2" edge="1">
          <mxGeometry width="50" height="50" relative="1" as="geometry">
            <mxPoint x="-1320" y="1410" as="sourcePoint" />
            <mxPoint x="-1410" y="1430" as="targetPoint" />
          </mxGeometry>
        </mxCell>
        <mxCell id="ekGB9nlK1m-V3cDS4Xhz-90" value="" style="endArrow=none;html=1;rounded=0;entryX=0;entryY=0.5;entryDx=0;entryDy=0;" parent="1" target="DLUMgZfNCb0zFbr6v7K_-3" edge="1">
          <mxGeometry width="50" height="50" relative="1" as="geometry">
            <mxPoint x="-1320" y="1410" as="sourcePoint" />
            <mxPoint x="-1450" y="1540" as="targetPoint" />
          </mxGeometry>
        </mxCell>
        <mxCell id="ekGB9nlK1m-V3cDS4Xhz-100" value="" style="endArrow=none;html=1;rounded=0;entryX=1;entryY=0.5;entryDx=0;entryDy=0;exitX=0.5;exitY=0.5;exitDx=0;exitDy=0;exitPerimeter=0;" parent="1" source="YjlcLBbJkgOvv29dIScK-3" target="ekGB9nlK1m-V3cDS4Xhz-92" edge="1">
          <mxGeometry width="50" height="50" relative="1" as="geometry">
            <mxPoint x="100" y="1030" as="sourcePoint" />
            <mxPoint x="150" y="980" as="targetPoint" />
          </mxGeometry>
        </mxCell>
        <mxCell id="ekGB9nlK1m-V3cDS4Xhz-101" value="" style="endArrow=none;html=1;rounded=0;entryX=1;entryY=0.5;entryDx=0;entryDy=0;exitX=0.5;exitY=0.5;exitDx=0;exitDy=0;exitPerimeter=0;" parent="1" source="YjlcLBbJkgOvv29dIScK-3" target="ekGB9nlK1m-V3cDS4Xhz-91" edge="1">
          <mxGeometry width="50" height="50" relative="1" as="geometry">
            <mxPoint x="110" y="1080" as="sourcePoint" />
            <mxPoint x="160" y="1030" as="targetPoint" />
          </mxGeometry>
        </mxCell>
        <mxCell id="ekGB9nlK1m-V3cDS4Xhz-102" value="" style="endArrow=none;html=1;rounded=0;exitX=1;exitY=0.5;exitDx=0;exitDy=0;entryX=0.5;entryY=0.5;entryDx=0;entryDy=0;entryPerimeter=0;" parent="1" source="ekGB9nlK1m-V3cDS4Xhz-94" target="YjlcLBbJkgOvv29dIScK-3" edge="1">
          <mxGeometry width="50" height="50" relative="1" as="geometry">
            <mxPoint x="120" y="1090" as="sourcePoint" />
            <mxPoint x="170" y="1040" as="targetPoint" />
          </mxGeometry>
        </mxCell>
      </root>
    </mxGraphModel>
  </diagram>
</mxfile>
